<svg width="261" height="41" viewBox="0 0 261 41" fill="none" xmlns="http://www.w3.org/2000/svg">
<path d="M22.2 1.56V7.16H9.6V13.84H20.52V19.44H9.6V31H3.8V1.56H22.2ZM37.9319 25.24H28.1719L25.7719 31H20.0519L33.3319 0.399998H33.6519L46.9319 31H40.2119L37.9319 25.24ZM36.0119 20.36L33.1719 13.2L30.2119 20.36H36.0119ZM65.3434 8.68C62.7834 7.26667 60.5568 6.56 58.6634 6.56C57.3834 6.56 56.3834 6.81333 55.6634 7.32C54.9701 7.82667 54.6234 8.58667 54.6234 9.6C54.6234 10.5333 55.1301 11.36 56.1434 12.08C57.1834 12.7733 58.5568 13.44 60.2634 14.08C61.6501 14.5867 62.8368 15.1733 63.8234 15.84C64.8101 16.48 65.6234 17.3733 66.2634 18.52C66.9301 19.6667 67.2634 21.12 67.2634 22.88C67.2634 24.4 66.8634 25.8133 66.0634 27.12C65.2901 28.4 64.1434 29.4267 62.6234 30.2C61.1034 30.9467 59.2901 31.32 57.1834 31.32C55.4234 31.32 53.6768 31.0667 51.9434 30.56C50.2101 30.0267 48.5968 29.2267 47.1034 28.16L49.6634 23.64C50.6768 24.3867 51.8368 25 53.1434 25.48C54.4501 25.96 55.6234 26.2 56.6634 26.2C57.8901 26.2 58.9568 25.9467 59.8634 25.44C60.7701 24.9067 61.2234 24.0533 61.2234 22.88C61.2234 21.36 59.7968 20.04 56.9434 18.92C55.2634 18.2533 53.8634 17.6133 52.7434 17C51.6234 16.3867 50.6501 15.5067 49.8234 14.36C49.0234 13.2133 48.6234 11.7733 48.6234 10.04C48.6234 7.50667 49.4501 5.46667 51.1034 3.92C52.7834 2.37333 55.0101 1.53333 57.7834 1.4C59.9701 1.4 61.7968 1.65333 63.2634 2.16C64.7301 2.64 66.1568 3.33333 67.5434 4.24L65.3434 8.68ZM96.1037 31H90.3037V19.04H77.1437V31H71.3437V1.56H77.1437V13.44H90.3037V1.56H96.1037V31ZM107.887 1.56V31H102.087V1.56H107.887ZM112.086 16.32C112.086 13.6533 112.753 11.16 114.086 8.84C115.446 6.52 117.273 4.68 119.566 3.32C121.886 1.93333 124.393 1.24 127.086 1.24C129.779 1.24 132.273 1.93333 134.566 3.32C136.886 4.68 138.726 6.52 140.086 8.84C141.473 11.16 142.166 13.6533 142.166 16.32C142.166 19.04 141.473 21.5467 140.086 23.84C138.726 26.1333 136.886 27.96 134.566 29.32C132.273 30.6533 129.779 31.32 127.086 31.32C124.366 31.32 121.859 30.6533 119.566 29.32C117.273 27.96 115.446 26.1333 114.086 23.84C112.753 21.5467 112.086 19.04 112.086 16.32ZM118.086 16.32C118.086 18.0267 118.486 19.6 119.286 21.04C120.113 22.48 121.219 23.6267 122.606 24.48C124.019 25.3067 125.579 25.72 127.286 25.72C128.939 25.72 130.446 25.3067 131.806 24.48C133.166 23.6267 134.233 22.4933 135.006 21.08C135.779 19.64 136.166 18.0533 136.166 16.32C136.166 14.56 135.766 12.96 134.966 11.52C134.166 10.08 133.073 8.94667 131.686 8.12C130.326 7.26667 128.806 6.84 127.126 6.84C125.446 6.84 123.913 7.26667 122.526 8.12C121.166 8.94667 120.086 10.08 119.286 11.52C118.486 12.96 118.086 14.56 118.086 16.32ZM172.868 1.56V32.2H172.708L152.108 13.6L152.228 31H146.348V0.399998H146.588L167.148 19.28L167.028 1.56H172.868ZM203.61 31H197.81V19.04H184.65V31H178.85V1.56H184.65V13.44H197.81V1.56H203.61V31ZM214.794 20.12C214.794 21.0533 215.074 21.9467 215.634 22.8C216.194 23.6533 216.94 24.3467 217.874 24.88C218.807 25.4133 219.807 25.68 220.874 25.68C222.02 25.68 223.074 25.4133 224.034 24.88C224.994 24.3467 225.74 23.6533 226.274 22.8C226.834 21.9467 227.114 21.0533 227.114 20.12V1.56H232.834V20.24C232.834 22.3467 232.3 24.2533 231.234 25.96C230.167 27.64 228.714 28.96 226.874 29.92C225.06 30.8533 223.06 31.32 220.874 31.32C218.687 31.32 216.687 30.8533 214.874 29.92C213.06 28.96 211.62 27.64 210.554 25.96C209.514 24.2533 208.994 22.3467 208.994 20.24V1.56H214.794V20.12ZM253.388 15.48C254.935 16.2 256.135 17.1467 256.988 18.32C257.868 19.4667 258.308 20.8 258.308 22.32C258.308 25.3067 257.321 27.5067 255.348 28.92C253.401 30.3067 250.961 31 248.028 31H238.228V1.56H246.868C249.988 1.56 252.441 2.2 254.228 3.48C256.015 4.73333 256.908 6.56 256.908 8.96C256.908 10.4267 256.601 11.72 255.988 12.84C255.375 13.9333 254.508 14.8133 253.388 15.48ZM244.028 13.6H247.548C248.615 13.6 249.441 13.28 250.028 12.64C250.615 11.9733 250.908 11.16 250.908 10.2C250.908 9.21333 250.575 8.46667 249.908 7.96C249.241 7.42667 248.321 7.16 247.148 7.16H244.028V13.6ZM247.748 25.6C249.108 25.6 250.201 25.3333 251.028 24.8C251.881 24.24 252.308 23.4133 252.308 22.32C252.308 20.24 250.655 19.2 247.348 19.2H244.028V25.6H247.748Z" fill="white"/>
</svg>
